# xmcd
#
# Track frame offsets:
#	150
#	25082
#	54990
#	93841
#	126599
#	149253
#	191410
#	218931
#	234604
#
# Disc length: 3687 seconds
#
# Revision: 1
# Processed by: cddbd v1.5.2PL0 Copyright (c) Steve Scherf et al.
# Submitted via: audiograbber 1.83.01
#
DISCID=7c0e6509
DTITLE=Grateful Dead - 83-09-07 Red Rocks Amphitheatre, Morrison CO
DYEAR=1900
DGENRE=
TTITLE0=Jack Straw
TTITLE1=Candyman
TTITLE2=Little Red Rooster
TTITLE3=Loser
TTITLE4=My Brother Esau
TTITLE5=West LA Fadeaway
TTITLE6=Cassidy
TTITLE7=China Cat Sunflower
TTITLE8=I Know You Rider
EXTD=
EXTT0=
EXTT1=
EXTT2=
EXTT3=
EXTT4=
EXTT5=
EXTT6=
EXTT7=
EXTT8=
PLAYORDER=
